<svg width="28" height="24" viewBox="0 0 28 24" fill="none" xmlns="http://www.w3.org/2000/svg">
    <path d="M11.3333 6.66663L7 11C7.41333 11.16 7.74666 11.36 8.02666 11.52C8.52 11.8266 8.81333 12 9.56 12C10.3067 12 10.6 11.8266 11.0933 11.52C11.7067 11.16 12.5333 10.6666 14.0133 10.6666C15.4933 10.6666 16.32 11.16 16.92 11.52C17.4133 11.8133 17.72 12 18.4533 12C19.1867 12 19.4933 11.8266 19.9867 11.52C20.1467 11.4266 20.3333 11.32 20.5333 11.2133L11.9733 2.66663C9.90666 0.599968 8 -0.0133657 4.66666 -3.23596e-05V3.3333C7.09333 3.31997 8.52 3.8533 10 5.3333L11.3333 6.66663ZM27.3333 18H27.3067H27.3333ZM5.13333 16.6666C5.86666 16.6666 6.17333 16.8533 6.66666 17.1466C7.26666 17.5066 8.09333 18 9.57333 18C11.0533 18 11.88 17.5066 12.48 17.1466C12.9733 16.84 13.2667 16.6666 14.0133 16.6666C14.7467 16.6666 15.0533 16.8533 15.5467 17.1466C16.1467 17.5066 16.9733 18 18.4533 18C19.9333 18 20.76 17.5066 21.36 17.1466C21.8533 16.84 22.1467 16.6666 22.8933 16.6666C23.6267 16.6666 23.9333 16.8533 24.4267 17.1466C25.0267 17.5066 25.84 17.9866 27.3067 18V15.3333C26.5733 15.3333 26.2667 15.1466 25.7733 14.8533C25.1733 14.4933 24.3467 14 22.8667 14C21.3867 14 20.56 14.4933 19.96 14.8533C19.4667 15.16 19.16 15.3333 18.4267 15.3333C17.6933 15.3333 17.3867 15.1466 16.8933 14.8533C16.2933 14.4933 15.4667 14 13.9867 14C12.5067 14 11.68 14.4933 11.08 14.8533C10.5867 15.16 10.2933 15.3333 9.54666 15.3333C8.81333 15.3333 8.50666 15.1466 8.01333 14.8533C7.41333 14.4933 6.58666 14 5.10666 14C3.62666 14 2.8 14.4933 2.2 14.8533C1.70666 15.16 1.41333 15.3333 0.666664 15.3333V18C2.14666 18 2.97333 17.5066 3.6 17.1466C4.09333 16.84 4.4 16.6666 5.13333 16.6666ZM22.8933 20C21.4133 20 20.5867 20.4933 19.9867 20.8533C19.4933 21.16 19.1867 21.3333 18.4533 21.3333C17.72 21.3333 17.4133 21.1466 16.92 20.8533C16.32 20.4933 15.4933 20 14.0133 20C12.5333 20 11.7067 20.4933 11.0933 20.8533C10.6 21.16 10.3067 21.3333 9.56 21.3333C8.81333 21.3333 8.52 21.16 8.02666 20.8533C7.42666 20.4933 6.6 20 5.12 20C3.64 20 2.81333 20.4933 2.2 20.8533C1.70666 21.16 1.41333 21.3333 0.666664 21.3333V24C2.14666 24 2.97333 23.5066 3.58666 23.1466C4.08 22.84 4.38666 22.6666 5.12 22.6666C5.85333 22.6666 6.16 22.84 6.65333 23.1466C7.25333 23.5066 8.08 24 9.56 24C11.04 24 11.8667 23.5066 12.48 23.1466C12.9733 22.84 13.2667 22.6666 14.0133 22.6666C14.7467 22.6666 15.0533 22.8533 15.5467 23.1466C16.1467 23.5066 16.9733 24 18.4533 24C19.9333 24 20.7467 23.5066 21.36 23.1466C21.8533 22.84 22.1467 22.6666 22.8933 22.6666C23.6267 22.6666 23.9333 22.8533 24.4267 23.1466C25.0267 23.5066 25.8533 24 27.3333 24V21.3333C26.5867 21.3333 26.2933 21.16 25.8 20.8533C25.2 20.4933 24.3733 20 22.8933 20Z" fill="#FF0101"/>
    <path d="M20 6.66667C21.8409 6.66667 23.3333 5.17428 23.3333 3.33333C23.3333 1.49238 21.8409 0 20 0C18.159 0 16.6667 1.49238 16.6667 3.33333C16.6667 5.17428 18.159 6.66667 20 6.66667Z" fill="#FF0101"/>
</svg>
